/* XPM */
static char *c3b9f6fcfd094833efbcb57889c7bfd3tCigmpPq9FFT9fQp[] = {
/* columns rows colors chars-per-pixel */
"32 32 15 1 ",
"  c #242948",
". c #2A2944",
"X c #171F23",
"o c #DCE8EF",
"O c #A6CADD",
"+ c #768E9E",
"@ c #596B77",
"# c #809BAA",
"$ c #415059",
"% c #36464F",
"& c #425660",
"* c #090E11",
"= c black",
"- c #26363F",
"; c #0E1B22",
/* pixels */
"                                ",
"                                ",
"               ...              ",
"          ... XooO..            ",
"         .oOXX++oooO.           ",
"        .ooO+X@+OOO#XX          ",
"       .oOO++X@@++O@X$..        ",
"      .OOO++@%#@@@+X+ooO.       ",
"      X#O++@@#X&**XX+oOO.       ",
"      X#++@@**X**oo*@+O#X       ",
"      XXX@@X*o**+oo*@+++X       ",
"     .ooOXXOOoo*+oOOX@@@X       ",
"     XOoO+X+OoO*+OO+XXXXX       ",
"     XOOO+*+OO+*@++@*oo*X       ",
"     X#O+++%+++*@@@**+oO*       ",
"     X+++@@*@@@******+OO*       ",
"      X@@@**=@%**oOO*+++*       ",
"      **@**oO***+OO+*@@+*       ",
"       **oooO+**+O+++-@*        ",
"        *&OO++@*+++++**         ",
"         *++++@@*@@@-*          ",
"          **+@@@*****           ",
"            ****                ",
"                                ",
"                                ",
"                                ",
"                                ",
"                                ",
"                                ",
"                                ",
"                                ",
"                                "
};
