/* XPM */
static char *d982e139891f45c5b12afdaaba972e1820S6Mrm0W49ibEdb[] = {
/* columns rows colors chars-per-pixel */
"32 32 150 2 ",
"   c #242948",
".  c black",
"X  c #010101",
"o  c #030301",
"O  c #020202",
"+  c #030302",
"@  c #020203",
"#  c gray1",
"$  c #040202",
"%  c #040303",
"&  c #050303",
"*  c #060302",
"=  c #060303",
"-  c #040403",
";  c #070402",
":  c #070403",
">  c #030304",
",  c #030406",
"<  c #030507",
"1  c #040404",
"2  c #040505",
"3  c gray2",
"4  c #070504",
"5  c #060505",
"6  c #040507",
"7  c #060606",
"8  c #070606",
"9  c #070607",
"0  c #070707",
"q  c #0A0502",
"w  c #080506",
"e  c #080606",
"r  c #0F0604",
"t  c #0C0606",
"y  c #0B0803",
"u  c #0C0803",
"i  c #040609",
"p  c #05080B",
"a  c #06080C",
"s  c #090808",
"d  c #080909",
"f  c #0A0909",
"g  c #0D0B09",
"h  c #0D0B0A",
"j  c #0D0B0B",
"k  c #0E0C0D",
"l  c #0E0D0D",
"z  c #0E0E0F",
"x  c #100705",
"c  c #130705",
"v  c #110F08",
"b  c #110F0D",
"n  c #100E0E",
"m  c #110F0E",
"M  c #100F0F",
"N  c #141105",
"B  c #1A1007",
"V  c #12100F",
"C  c #1A110A",
"Z  c #1F1508",
"A  c #080C14",
"S  c #0A0D15",
"D  c #151313",
"F  c #181516",
"G  c #191616",
"H  c #1B1716",
"J  c #1A1617",
"K  c #121319",
"L  c #14151C",
"P  c #1D1918",
"I  c #1E1A19",
"U  c #1D1A1B",
"Y  c #2A0F09",
"T  c #221D1B",
"R  c #201C1D",
"E  c #0B1524",
"W  c #0C1524",
"Q  c #0E1A2B",
"!  c #0E1A2C",
"~  c #161921",
"^  c #221F20",
"/  c #241F20",
"(  c #1E2029",
")  c #272223",
"_  c #2C2522",
"`  c #2F2725",
"'  c #2C272A",
"]  c #312A2C",
"[  c #272A37",
"{  c #292C3B",
"}  c #2B2F3F",
"|  c #3C3331",
" . c #3F3633",
".. c #551C11",
"X. c #7E2212",
"o. c #403739",
"O. c #4C403D",
"+. c #142540",
"@. c #1C365E",
"#. c #313344",
"$. c #363B4E",
"%. c #463D40",
"&. c #564B46",
"*. c #5B4F4A",
"=. c #5F504B",
"-. c #42465D",
";. c #544B54",
":. c #58515C",
">. c #63544F",
",. c #64575C",
"<. c #68595D",
"1. c #77645E",
"2. c #4F546F",
"3. c #505571",
"4. c #505572",
"5. c #6D5E61",
"6. c #74656A",
"7. c #76666C",
"8. c #A2331F",
"9. c #A3331F",
"0. c #A4331F",
"q. c #A4341F",
"w. c #A13320",
"e. c #A33321",
"r. c #A43320",
"t. c #A63220",
"y. c #A73220",
"u. c #89736C",
"i. c #F59E38",
"p. c #968079",
"a. c #FFC666",
"s. c #F5C06A",
"d. c #FBC26E",
"f. c #FFC869",
"g. c #927E82",
"h. c #9E878C",
"j. c #A08C95",
"k. c #B99EA4",
"l. c #C4A9AF",
"z. c #CBAFB6",
"x. c #DFBFB2",
"c. c #E9C6BA",
"v. c #EAC7BA",
"b. c #FBD5C7",
"n. c #FCD8CB",
"m. c #FFD9CC",
"M. c #FFDACD",
"N. c #FFDDCF",
"B. c #FFDDD0",
"V. c #FFDED0",
/* pixels */
"                                                                ",
"                                                                ",
"                                                                ",
"                                                                ",
"                                                                ",
"                                                                ",
"                                                                ",
"                                                                ",
"        7 7 ]       @                             7 ] ] ] ^     ",
"        ] k.k.R e 7 ;.] 7                     b ] l.z.z.%.@     ",
"        j F h.h.h.) D g.<.z               s ] z.z.z.j.F @       ",
"            @ z T O.*.&._ 7 @ @         / j.z.z.j.5.@           ",
"          j =.b.B.N.N.N.N.x.` W E < @ ] z.z.z.7.@ @             ",
"        I c.B.B.B.B.B.N.N.B.n.I @.@.p j.j.,.@ @                 ",
"      b c.M.B.B.B.B.B.B.M.M.c.1.Q @.+.@ % i > 7 z F I z % @     ",
"      >.c.c.B.B.B.B.B.B.c.c.c.p.S @.@.S X.c :.z.z.z.z.z.z.j.    ",
"    7 p.@ c.B.B.B.c.c.c.V T c.p.a @.@.! X.X.u ' 6.6.6.o.u 7     ",
"    b p.@ @ c.c.c.c.c.s @ @ p.p.< ! @.! X.r.X.@                 ",
"    j p.@ F c.c.c.c.c.@ @ @ p.p.~ { 7 ! X.r.r.Y                 ",
"    7 p.% b c.c.c.c.c.7 @ >.p.s -.3.[ c w.r.r.9.@               ",
"       .c.c.c.c.c.c.c.c.p.p.I } 3.2.L X.0.0.0.9.r               ",
"      % p.c.c.c.c.c.c.p.u 7 #.K L s X.9.0.0.0.9.Y               ",
"        7 p.c.c.u.u u u $.$.( @ @ X.9.9.9.9.9.9.Y               ",
"          7 p.| 7 : e 7 @ r X.X.X.9.9.9.9.9.w.9.Y               ",
"            @ @ X.q X.: X.9.9.9.9.9.9.9.9.9.9.9.Y               ",
"            : i.9...9...9.9.9.9.9.9.9.9.9.9.9.i.Y               ",
"            % i.9.9.9.9.9.9.9.9.9.9.9.9.9.9.9.i.u               ",
"              Y i.9.i.9.9.9.9.9.9.9.9.9.9.9.i.Y v               ",
"              @ i.i.f.a.9.9.9.9.9.9.9.9.q.i.f.N                 ",
"                B s.f.f.i.9.9.9.9.9.9.9.i.f.Z                   ",
"                  C Y d.f.i.i.i.i.i.i.i.Y y                     ",
"                    7 u Y Y Y Y Y Y u %                         "
};
