/* XPM */
static char *_b3412487b744f7be135ed631d6ce49dH2WfYNNtJR6Uncmm[] = {
/* columns rows colors chars-per-pixel */
"32 32 13 1 ",
"  c #808080",
". c #2A2944",
"X c #FFF589",
"o c #B72A00",
"O c #FFB642",
"+ c #FFF5F9",
"@ c #771500",
"# c #FF7C26",
"$ c #441000",
"% c #431000",
"& c #F9BC4A",
"* c #111B21",
"= c gray25",
/* pixels */
"                                ",
"                                ",
"                                ",
"          .........             ",
"      ....XXXXXXXXX..           ",
"    ooXXXXXXXXOOOOOXX..         ",
"   oXXXOOXXXXXXXXOOOOOO.        ",
"  oXXOOXX+++++XXXOOOXXXOo       ",
" @XXOOXX+++XXXXOOOOXX+XXOo      ",
" @XOOOXXXXOOOOOOOOOXX++XXOo     ",
"@OOOOOOOOOOOOOOOOOOOOOXXXOo     ",
"@O#OOOOOOOOOOOOOOOOOOOOOXXOo    ",
"@O##OOOOO#########OOOOO##XXo    ",
"@O###OO#############OOOOOOXO@   ",
"@################XXoooooooOX@   ",
"$##########oo###XooXXXXXXXo@%   ",
"$####oooo#oo@@oXoXXOOOOO&XXX@*  ",
"$###ooooo##@@@XoX++XOOOOXX++X@  ",
" $##oooooo#$$XoXX++XOOOOOOXOOX@ ",
"=$##oooooo#$$XoXOXXOOOOOOOOOOX@ ",
"==$##oo@@@o#O@XOOOOOOOOOOOOO##O@",
"===$##o@@@@@O@XO##OOOOOOOOO###O@",
"====$oo@@@@@O@X######OOO######O@",
" =====oo@@@@#$X#####@@###oo###O$",
"  =====ooo@@#$O###o#@@#@@@o####$",
"   ======ooo#$#O#o@o##$$@@##o##$",
"     ======@@@$O#o@@@o$$$#@oo#$ ",
"       =======$oO#o@@@ooo@oo#o$=",
"           ====$o###o@@@@o##o$==",
"              =====o@@@@@@@o=== ",
"               ===============  ",
"                  =========     "
};
