/* XPM */
static char *_5a0223c52dc4e68b153e9e08aa86006mD4e90avYxjxqFQ1[] = {
/* columns rows colors chars-per-pixel */
"32 32 19 1 ",
"  c #808080",
". c #2A2944",
"X c #58587C",
"o c #8CBECE",
"O c #577FBF",
"+ c #333259",
"@ c #9EE1F7",
"# c #52529B",
"$ c #4671BA",
"% c #6262C4",
"& c #0F0C1E",
"* c #567DBD",
"= c #4D7ECC",
"- c #334675",
"; c #2D2D47",
": c #325084",
"> c gray25",
", c #0C0821",
"< c #1D173A",
/* pixels */
"                                ",
"                                ",
"                                ",
"                                ",
"                                ",
"                                ",
"                                ",
"                                ",
"                                ",
"            ........            ",
"          XXoooooooO..          ",
"         +Oooo@@@ooOoo.         ",
"        +##$@@@@@@o%ooo.        ",
"       +oo@$$@@@oooX@ooo.       ",
"      +oo@@@$%ooOO%X@@oo.&      ",
"      +oo@@o%%XOOOXo@@ooO&      ",
"     &Ooo@oo%OXOOOXOo@oO*o&     ",
"     &XOOOo=OO----;OOO%%oo&     ",
"     &:ooXXX%---;;;;%--*o*%&    ",
"     &Ooo%%X--ooO%X;;-XX*%%&    ",
"     &OoO%%%;Oo%--XX;;XX*%%&    ",
"     &OOOO%X;O%XX;OO;;X%*%%&    ",
"     &%O%---;;%%;;-O;;%%*%*&    ",
"     >,%--XXX;;;;---;;-X**O&    ",
"    >>,X-%%XX-X%%%-;;X;--;;&    ",
"    >>>>-X%%%X%%--<<-XX%%%,>    ",
"     >>>>>>><<<<<<----%%%X,>    ",
"        >>>>>--XX-;;XXXX-,>>>   ",
"           >>>>-XXX;;---,>>>>   ",
"             >>>>>>>>>>>>>>     ",
"                                ",
"                                "
};
