/* XPM */
static char *_ffcd06cd87249fc896a44f3be582d83nyptllz1n3Womg4q[] = {
/* columns rows colors chars-per-pixel */
"32 32 14 1 ",
"  c None",
". c black",
"X c #262C3A",
"o c #102444",
"O c #1B3051",
"+ c gray25",
"@ c #565656",
"# c #6B694E",
"$ c #405A6B",
"% c #7F7777",
"& c #99956B",
"* c gray68",
"= c #D6D3AD",
"- c gray95",
/* pixels */
"                                ",
"                                ",
"                                ",
"                                ",
"                                ",
"               @@.              ",
"             @@--.              ",
"           X.@---..X            ",
"          @%-.---.-%@           ",
"         @%--.-**%--%@          ",
"         @---%***%---@          ",
"         @---%**%@---@          ",
"         @---@%%%@---@          ",
"         X*--X%%@X--*X          ",
"         X***@@@@X***X          ",
"         X..**@XX@***X          ",
"         ...**%@@***%.          ",
"         ..@**%%@***%..         ",
"         .%***%%%***%..         ",
"          .%%%@@@%%%.#.         ",
"           .%@@@@@%.#=.         ",
"           ........#&=.         ",
"           .O.Oo.Oo#=&.         ",
"          .O$$$O.$$.=.          ",
"          .$$.$$OO$.=.          ",
"          .$o.$$O.O.&.          ",
"          .O...OO..O.           ",
"          ..++...++.+           ",
"         +++++...+++++          ",
"          +++++.+++++           ",
"            +++++++             ",
"                                "
};
