/* XPM */
static char *_7ce38e976d4445fdb0c50e3cef943e26o6p2SUTOXOPoFwW[] = {
/* columns rows colors chars-per-pixel */
"32 32 25 1 ",
"  c #242948",
". c black",
"X c #00001E",
"o c #262C3A",
"O c #102444",
"+ c #1B3051",
"@ c #3E3E47",
"# c #254051",
"$ c #385B75",
"% c #191D34",
"& c #565656",
"* c #405A6B",
"= c #686262",
"- c #6D6D6D",
"; c #7F7777",
": c #A72C21",
"> c #966B24",
", c #AB7827",
"< c #CA483C",
"1 c #BF8B37",
"2 c #D9B445",
"3 c #E8C65E",
"4 c gray68",
"5 c #F6DA86",
"6 c gray95",
/* pixels */
"                                ",
"                                ",
"                                ",
"                                ",
"                                ",
"        ooo         ooo         ",
"       o46o         o64o        ",
"       o66o>>,,,,,>>o66o        ",
"      o664o125555321o466o       ",
"      o44o13355533331o44o       ",
"     ,o:4o33333333333o4:o,      ",
"     122:o33333333553o:221      ",
"      133:::<<<<<<::::331       ",
"      .22335533333333322.       ",
"       .&2222222222222&.        ",
"        .&4..=444=..4&.         ",
"         .;...444...;.          ",
"         .;...444...;.          ",
"        ..;&..444..&;.          ",
"       .-@.;;44444;;.           ",
"       .-@..;;;;;;;..           ",
"        ...O.......O.           ",
"         .*O.+XXX+.O*.          ",
"        .**O**+X+**O**.         ",
"        .*##**+X+**##$.         ",
"        .#O**#XXX#**O#.         ",
"         .O##XXXXX##O.          ",
"         %..XXXXXXX..-.         ",
"        %%%%.X%%%X.%...         ",
"         %%%%.%%%.%%%%          ",
"           %%%%%%%%%            ",
"                                "
};
