/* XPM */
static char *result[] = {
/* columns rows colors chars-per-pixel */
"32 32 22 1 ",
"  c black",
". c #262C3A",
"X c #102444",
"o c #1B3051",
"O c #191D34",
"+ c #565656",
"@ c #6B694E",
"# c #405A6B",
"$ c #7F7777",
"% c #A72C21",
"& c #966B24",
"* c #AB7827",
"= c #BF8B37",
"- c #CCA736",
"; c #99956B",
": c #D9B445",
"> c #E8C65E",
", c gray68",
"< c #F6DA86",
"1 c #D6D3AD",
"2 c gray95",
"3 c #242948",
/* pixels */
"33333333333333333333333333333333",
"33333333333333333333333333333333",
"33333333333333333333333333333333",
"33333333333333333333333333333333",
"33333333333333333333333333333333",
"333333333333333++ 33333333333333",
"3333333333333++22 33333333333333",
"33333333333*&+222 &*333333333333",
"3333333333=-: 222 :-=33333333333",
"333333333=-<< 2,,$<<-=3333333333",
"333333333=<>>$,,,$>><=3333333333",
"333333333%>>>$,,$+>>>%3333333333",
"3333333-->%%%%%%%%%%%:--33333333",
"33333333-->>>>:::::::--333333333",
"333333333.-----:-----.3333333333",
"333333333.  ,,+..+,,,.3333333333",
"333333333   ,,$++,,,$ 3333333333",
"333333333  +,,$$+,,,$  333333333",
"333333333 $,,,$$$,,,$  333333333",
"3333333333 $$$+++$$$ @ 333333333",
"33333333333 $+++++$ @1 333333333",
"33333333333        @;1 333333333",
"33333333333 o oX oX@1; 333333333",
"3333333333 o###o ## 1 3333333333",
"3333333333 ## ##oo# 1 3333333333",
"3333333333 #X ##o o ; 3333333333",
"3333333333 o   oo  o 33333333333",
"3333333333  OO   OO O33333333333",
"333333333OOOOO   OOOOO3333333333",
"3333333333OOOOO OOOOO33333333333",
"333333333333OOOOOOO3333333333333",
"33333333333333333333333333333333"
};
