/* XPM */
static char *_dad278878f843579d4a6764057ca861Xsk9HKgCWKHhx7FA[] = {
/* columns rows colors chars-per-pixel */
"32 32 25 1 ",
"  c #242948",
". c black",
"X c #262C3A",
"o c #4F4D39",
"O c #102444",
"+ c #1B3051",
"@ c #254051",
"# c #191D34",
"$ c #565656",
"% c #6B694E",
"& c #405A6B",
"* c #7F7777",
"= c #A72C21",
"- c #966B24",
"; c #AB7827",
": c #CA483C",
"> c #BF8B37",
", c #99956B",
"< c #D9B445",
"1 c #E8C65E",
"2 c #B2B090",
"3 c gray68",
"4 c #F6DA86",
"5 c #D6D3AD",
"6 c gray95",
/* pixels */
"                                ",
"                                ",
"                                ",
"                                ",
"                                ",
"        XXX         XXX         ",
"       X36X         X63X        ",
"       X66X--;;;;;--X66X        ",
"      X663X><14411<>X366X       ",
"      X33X>144441111>X33X       ",
"      X33X11444111111X33X       ",
"      =3*X11111111441X*3=       ",
"     ><=====::::::::====<>      ",
"      ><<<1144111111<<<<>       ",
"       >><<<<<<<<<<<<<>>        ",
"        .$33333333333$.         ",
"         .*333333333*.          ",
"         .*333333333*.          ",
"         .*333333333*..         ",
"          .*33333**..22.        ",
"          ..***....,552.        ",
"          .O...%%255,..         ",
"         .&O..222%25..          ",
"        .&&O.5522%22.&.         ",
"        .&@.%522,o,,.&.         ",
"        .@.55%2,,o..+@.         ",
"         .552o,,..@@+.          ",
"        .5522........           ",
"        ......###..###          ",
"          ###.###.###           ",
"            #######             ",
"                                "
};
