/* XPM */
static char *result[] = {
/* columns rows colors chars-per-pixel */
"32 32 22 1 ",
"  c black",
". c #262C3A",
"X c #102444",
"o c #1B3051",
"O c #191D34",
"+ c #4C4C4C",
"@ c #515151",
"# c #565656",
"$ c #405A6B",
"% c #6D6D6D",
"& c #7F7777",
"* c #A72C21",
"= c #966B24",
"- c #AB7827",
"; c #BF8B37",
": c #CCA736",
"> c #D9B445",
", c #E8C65E",
"< c gray68",
"1 c #F6DA86",
"2 c gray95",
"3 c #242948",
/* pixels */
"33333333333333333333333333333333",
"33333333333333333333333333333333",
"33333333333333333333333333333333",
"33333333333333333333333333333333",
"33333333333333333333333333333333",
"3333333333333 ++3333333333333333",
"3333333333333 22++33333333333333",
"33333333333-= 222+=-333333333333",
"3333333333;:> 222 >:;33333333333",
"333333333;:11&<<2 11:;3333333333",
"333333333;1,,&<<<&,,1;3333333333",
"333333333*,,,#&<<&,,,*3333333333",
"3333333;;>***********,;;33333333",
"33333333;:>>>>>>>>,,,::333333333",
"333333333.:::::>:::::.3333333333",
"333333333.<<<#..#&<  .3333333333",
"333333333 &<<<##&<<   3333333333",
"333333333 &<<<#&&<<#  3333333333",
"333333333  <<<&&&<<<& 3333333333",
"33333333.%@ &&###&&& 33333333333",
"33333333.%% &#####& 333333333333",
"33333333 ..         333333333333",
"333333333 . Xo Xo o 333333333333",
"3333333333 o$$ o$o$o 33333333333",
"3333333333 $$oo$$ $$ 33333333333",
"3333333333 $o o$o o$ 33333333333",
"3333333333 o  oo   o 33333333333",
"3333333333O OO   OO  33333333333",
"333333333OOOOO   OOOOO3333333333",
"3333333333OOOOO OOOOO33333333333",
"333333333333OOOOOOO3333333333333",
"33333333333333333333333333333333"
};
