/* XPM */
static char *_b6d2d78ee2d4746b75c775300c16d57JCSTuWP3OaT6PP3i[] = {
/* columns rows colors chars-per-pixel */
"32 32 17 1 ",
"  c None",
". c black",
"X c #262C3A",
"o c #4F4D39",
"O c #102444",
"+ c #1B3051",
"@ c #254051",
"# c gray25",
"$ c #565656",
"% c #6B694E",
"& c #405A6B",
"* c #7F7777",
"= c #99956B",
"- c #B2B090",
"; c gray68",
": c #D6D3AD",
"> c gray95",
/* pixels */
"                                ",
"                                ",
"                                ",
"                                ",
"                                ",
"        XXX         XXX         ",
"       X;>X         X>;X        ",
"       X>>X..XXXXX..X>>X        ",
"      X>>;X*;>>>>>;*X;>>X       ",
"      X;;X*>>>>>>>>>*X;;X       ",
"      X;;X>>>>>>>>>>>X;;X       ",
"      X;*X>>>>>>>>>>>X*;X       ",
"      .**$>>>>>>>>>>>$**.       ",
"      .*$$;>>>>>>>>>;$$*.       ",
"       .$$;;;;;;;;;;;$$.        ",
"        .$;;;;;;;;;;;$.         ",
"         .*;;;;;;;;;*.          ",
"         .*;;;;;;;;;*.          ",
"         .*;;;;;;;;;*..         ",
"          .*;;;;;**..--.        ",
"          ..***....=::-.        ",
"          .O...%%-::=..         ",
"         .&O..---%-:..          ",
"        .&&O.::--%--.&.         ",
"        .&@.%:--=o==.&.         ",
"        .@.::%-==o..+@.         ",
"         .::-o==..@@+.          ",
"        .::--........           ",
"        ......###..###          ",
"          ###.###.###           ",
"            #######             ",
"                                "
};
