/* XPM */
static char *cdee687fa035419fc9d2a723b74f37c4jkHJhANoMppzvhMN[] = {
/* columns rows colors chars-per-pixel */
"32 32 14 1 ",
"  c None",
". c black",
"X c #262C3A",
"o c #102444",
"O c #1B3051",
"+ c gray25",
"@ c #4C4C4C",
"# c #515151",
"$ c #565656",
"% c #405A6B",
"& c #6D6D6D",
"* c #7F7777",
"= c gray68",
"- c gray95",
/* pixels */
"                                ",
"                                ",
"                                ",
"                                ",
"                                ",
"             .@@                ",
"             .--@@              ",
"           X..---@.X            ",
"          @*=.---.=*@           ",
"         @*--*==-.--*@          ",
"         @---*===*---@          ",
"         @---$*==*---@          ",
"         @---$***$---@          ",
"         X=--X$**X--=X          ",
"         X===X$$$$===X          ",
"         X===$XX$*=..X          ",
"         .*===$$*==...          ",
"         .*===$**==$..          ",
"         ..===***===*.          ",
"        X&#.**$$$***.           ",
"        X&&.*$$$$$*.            ",
"        .XX.........            ",
"         .X.oO.oO.O.            ",
"          .O%%.O%O%O.           ",
"          .%%OO%%.%%.           ",
"          .%O.O%O.O%.           ",
"          .O..OO...O.           ",
"          +.++...++..           ",
"         +++++...+++++          ",
"          +++++.+++++           ",
"            +++++++             ",
"                                "
};
