/* XPM */
static char *_dc83137da75462d8e3c2740d5a91f02Kv9BJt8e5lqEO3Xw[] = {
/* columns rows colors chars-per-pixel */
"32 32 17 1 ",
"  c black",
". c #00001E",
"X c #262C3A",
"o c #102444",
"O c #1B3051",
"+ c #3E3E47",
"@ c #254051",
"# c #385B75",
"$ c gray25",
"% c #565656",
"& c #405A6B",
"* c #686262",
"= c #6D6D6D",
"- c #7F7777",
"; c #808080",
": c gray68",
"> c gray95",
/* pixels */
";;;;;;;;;;;;;;;;;;;;;;;;;;;;;;;;",
";;;;;;;;;;;;;;;;;;;;;;;;;;;;;;;;",
";;;;;;;;;;;;;;;;;;;;;;;;;;;;;;;;",
";;;;;;;;;;;;;;;;;;;;;;;;;;;;;;;;",
";;;;;;;;;;;;;;;;;;;;;;;;;;;;;;;;",
";;;;;;;;XXX;;;;;;;;;XXX;;;;;;;;;",
";;;;;;;X:>X;;;;;;;;;X>:X;;;;;;;;",
";;;;;;;X>>X  XXXXX  X>>X;;;;;;;;",
";;;;;;X>>:X-:>>>>>:-X:>>X;;;;;;;",
";;;;;;X::X->>>>>>>>>-X::X;;;;;;;",
";;;;;;X::X>>>>>>>>>>>X::X;;;;;;;",
";;;;;;X:-X>>>>>>>>>>>X-:X;;;;;;;",
";;;;;; --%>>>>>>>>>>>%-- ;;;;;;;",
";;;;;; -%%:>>>>>>>>>:%%- ;;;;;;;",
";;;;;;; %%:::::::::::%% ;;;;;;;;",
";;;;;;;; %:  *:::*  :% ;;;;;;;;;",
";;;;;;;;; -   :::   - ;;;;;;;;;;",
";;;;;;;;; -   :::   - ;;;;;;;;;;",
";;;;;;;;  -%  :::  %- ;;;;;;;;;;",
";;;;;;; =+ --:::::-- ;;;;;;;;;;;",
";;;;;;; =+  -------  ;;;;;;;;;;;",
";;;;;;;;   o       o ;;;;;;;;;;;",
";;;;;;;;; &o O...O o& ;;;;;;;;;;",
";;;;;;;; &&o&&O.O&&o&& ;;;;;;;;;",
";;;;;;;; &@@&&O.O&&@@# ;;;;;;;;;",
";;;;;;;; @o&&@...@&&o@ ;;;;;;;;;",
";;;;;;;;; o@@.....@@o ;;;;;;;;;;",
";;;;;;;;;$  .......  = ;;;;;;;;;",
";;;;;;;;$$$$ .$$$. $   ;;;;;;;;;",
";;;;;;;;;$$$$ $$$ $$$$;;;;;;;;;;",
";;;;;;;;;;;$$$$$$$$$;;;;;;;;;;;;",
";;;;;;;;;;;;;;;;;;;;;;;;;;;;;;;;"
};
