/* XPM */
static char *_d3210cd88b446c2e56642eab5cecf673woKTRVTrAux8I64[] = {
/* columns rows colors chars-per-pixel */
"32 32 17 1 ",
"  c #808080",
". c #2A2944",
"X c #6B417F",
"o c #FFBAF5",
"O c gray99",
"+ c #E88CFF",
"@ c #EAC9EA",
"# c #BA5DB8",
"$ c #A563A4",
"% c gray25",
"& c #714687",
"* c #420060",
"= c #613C75",
"- c #4A2E59",
"; c #EAC0EA",
": c #000A0F",
"> c white",
/* pixels */
"                                ",
"                                ",
"                                ",
"      ..                        ",
"     XoO..                      ",
"     X+OO@..                    ",
"     X+oOoo@..                  ",
"     X#oo@ooo@..                ",
"    X#$oooOoooo@XX              ",
"    X$$ooo@O@OO@@@X             ",
"    X$#o@OOOOOooo@X             ",
"    X$+@o++++O++oo@X            ",
"   X#+#@+##++Oo++o@X  %%%       ",
"   X++&+@####+O+++o@X%%%%       ",
"   X+&&#@+###+Oo++o@X%%%%%      ",
"   *$&==+o+oo@@@++oo@X%%%%      ",
"   *$&--#@@o+++@o+;o@X:::%      ",
"    *$--=+o###+#@@...::%        ",
"    *$&--#o+####@oX@o...        ",
"     *$=-=+@###+oXo+>ooo..      ",
"     *$&==#@+++++X++o>oo@@X     ",
"    %%*$&=&+@++++X+++o>>++X     ",
"    %%*$&&&#@++:Xo+o@>>o#+#X    ",
"    %%%:::%%%%%%Xoo+$$&o##+X%%  ",
"  %%%%::::%%  %%X$#$&&&+##+#::% ",
"  %%% :::        *#&&&&&+#++:   ",
"                 *#&--&$+o+%    ",
"               %%:*#--$$$o:%    ",
"              %%::*#---$$:%     ",
"                %%%%%%%%::%     ",
"                       %%::     ",
"                                "
};
