/* XPM */
static char *_789424a08eb4dfcf7c236423b173bdfQVLIJcgzaGRZENBP[] = {
/* columns rows colors chars-per-pixel */
"32 32 11 1 ",
"  c #808080",
". c black",
"X c #272E36",
"o c #2E3742",
"O c #46505E",
"+ c #4A5665",
"@ c #6A717A",
"# c #838B96",
"$ c gray78",
"% c #E1E1E1",
"& c #F2F5F9",
/* pixels */
"                                ",
"                                ",
"                                ",
"                                ",
"                                ",
"                                ",
"                                ",
"                                ",
"        ........                ",
"      ...&%%%%%..               ",
"      .&&%%%%%%%.....           ",
"      .&%%%%%%%%..Oo...         ",
"     ..%%%%%%%%%$.OoXO..        ",
"     .&&.$%%%&.$$.OoXOo.        ",
"     .&%%%%%%%%%$.oXOOo.        ",
"     .&%%%%%%%%%$.oXOOo..       ",
"     .&%%%%%%%%%$.XOOOoo.       ",
"     ..%%$$$$$%$$.OOoooX.       ",
"      .$......$...ooXXOo.       ",
"      ... .#@...++XXOOOo.       ",
"          .#@@@@++XOOOoo.       ",
"          .#.@@@@+Xo.ooX.       ",
"          .#.@@@@+OX.XXX.       ",
"          .##@@@@+OOOOX..       ",
"          ..#@@@@++OOOo.        ",
"           ...#@@@+XOoo.        ",
"             ..#@++ooo..        ",
"             ...+++oo..         ",
"             .........          ",
"             ..     ..          ",
"             ..     ..          ",
"                                "
};
