/* XPM */
static char *_9cc9dcf5e9b432ba75d0587ae2c2872Tg4qi1MeaYjmIOpY[] = {
/* columns rows colors chars-per-pixel */
"32 32 12 1 ",
"  c #808080",
". c #06080B",
"X c #171C22",
"o c #141B24",
"O c #202A34",
"+ c #252F3A",
"@ c #2B3643",
"# c #3D4B5C",
"$ c #254D7C",
"% c #445972",
"& c #5C88BD",
"* c #4883C9",
/* pixels */
"                                ",
"                                ",
"XXXX  XXXXXXXXXXXXXXXXXXXX  XXXX",
"X##XXXX#######@@@@@@@@@@@XXXX@@X",
"X#@X&%X###@@@@@@@@@@@@@@@X&%X#@X",
"X#@X&%X##@@@@@@@@@@@@@@@@X&%X#@X",
"X@@X&%X#@@@@@@@@@@@@@@@@@X&%X@@X",
"X@@X&%X#@@@@@@@@@@@@@@@@@X&%X@@X",
"X@@X&%X@@@@@@@@@@##@@@@@@X&%X@@X",
"X@@X&%X#@@@@@@@@##@@@@@@@X&%X@@X",
"X@+X&%X@@@@@@@@##@@@@@@@@X%%X@@X",
"X@+X&%X@#@@@@@@@@@@#@@@@+X%%X@+X",
"X@+X&%X@#@@@@@@@@@#@@@@@+X&%X@+X",
"X+OX&%X@#@@@@@@@@@@@@@@@OX&%X@O.",
"XOOX&%.@@@@@+OXXXX@@@@@+OX&%.+O.",
".OO.%%.@@@@+OX**$$.@++OOO.%%.OO.",
" ...........XXXX............... ",
" .++.%%.++++OOX*$.++++OO.&%.++. ",
" X@+.%%.@@@@@@O..O@@@@+O.&%.@+X ",
" X#+X&%X@##@@@@+O@@@@@@Oo&%X#@X ",
" X#@X&%X#@@@@@@@@@@@@@@OX&%X#@X ",
" X@@X&%X@@@@@@@@@@@@@@@OX%%X@@X ",
" X@+X&%X#@@@@@@@@@@@@@@+X%%X#@X ",
" X@+X%%X#@@@@@@@@@@@@@@+.&%X#+X ",
" X@+X%%X#@@@@@#@@@@@@@@+.&%X#+. ",
" .@OX&%X#@@@@#@@@@#@@@@O.&%X@+. ",
" .@OX&%X#@@@#@@@@#@@@@@O.%%.@+. ",
" .+O.&%.@@@@@@@@@@@@@@@O.%%.@O. ",
" .OO.&%.@@@@@@@@@@@@@@@O.%%.@O. ",
" .OO.%%.@@@@@@@@@@@@OOOO.&%.+O. ",
" .OO.%%.@@@@@OOOOOOOOOOO.%%.OO. ",
" .............................. "
};
