/* XPM */
static char *d8fe15e808a84796c937018a3580d9fc0bozkqCyjf03Vtrw[] = {
/* columns rows colors chars-per-pixel */
"32 32 67 1 ",
"  c #222D28",
". c #656565",
"X c gray38",
"o c gray36",
"O c #5A5A5A",
"+ c #676767",
"@ c #686868",
"# c gray40",
"$ c #191319",
"% c black",
"& c #747474",
"* c #1E1E1E",
"= c #727272",
"- c #5F5F5F",
"; c #444444",
": c #606060",
"> c #6D6D6D",
", c gray45",
"< c DimGray",
"1 c gray42",
"2 c #808080",
"3 c #626262",
"4 c #5B5B5B",
"5 c #5D5D5D",
"6 c #555555",
"7 c #3F3B49",
"8 c gray37",
"9 c #6F6F6F",
"0 c gray49",
"q c #2D2D2D",
"w c #585858",
"e c gray35",
"r c #332733",
"t c gray44",
"y c #7B7B7B",
"u c gray50",
"i c #7C7C7C",
"p c gray32",
"a c gray47",
"s c #021010",
"d c #031111",
"f c #6A6A6A",
"g c #020D0D",
"h c #020B0B",
"j c #020C0C",
"k c #020F0F",
"l c #020E0E",
"z c #777777",
"x c #040F0F",
"c c #040E0F",
"v c #041010",
"b c #030F0F",
"n c #040E0E",
"m c #030D0D",
"M c #020A0A",
"N c #040C0C",
"B c gray25",
"V c #030C0C",
"C c #041011",
"Z c #1D1D1D",
"A c #031010",
"S c gray21",
"D c #3F3F3F",
"F c gray24",
"G c gray19",
"H c #030E0E",
"J c #020909",
/* pixels */
"  .XoO+@#@$%&$*=&$*-$*;:#>,<12  ",
"34o56$%*1$7:*7:$%7:*7:*;$%*89022",
"qw8e$r7:*r77$77$%77$77:$r7:*t9yu",
"q68%%rr7%rr7%r7%%r7%r77%rr7%*>=i",
"qp$77**r7%rr%rr%%rr%rr%rr$%7:*9a",
"qq%r7::*%s%%d%%dd%%d%%d%$r777%f,",
"*$%rr77%ghjklkkkkkkklkgk%rrr7%*z",
"$r7%*r%khxcvbbxxxxxxnbbmk%r$%7:*",
"%rr7:*sMxxxxxxxxxxxxxxxxjd$r777%",
"%rrr7%gNxxxxxxxxxxxxxxxxbk%rrr7%",
"B$%%*dVxxxxxxxxxxxxxxxxxCsd$%%*B",
"$r77:ZVxxxxxxxxxxxxxxxxxxd$r77:*",
"%rrr7%lxxxxxxxxxxxxxxxxxbd%rrr7%",
"*$%%*skxxxxxxxxxxxxxxxxxxAd$%%*S",
"$r77:*AxxxxxxxxxxxxxxxxxxA$r77:*",
"%rrr7%AxxxxxxxxxxxxxxxxxxA%rrr7%",
"D$%%*dAxxxxxxxxxxxxxxxxxxAd$%%*B",
"$r77:*kxxxxxxxxxxxxxxxxxxA$r77:*",
"%rrr7%kxxxxxxxxxxxxxxxxxxA%rrr7%",
"*$%%*skxxxxxxxxxxxxxxxxxxAd$%%*F",
"$r77:Zkxxxxxxxxxxxxxxxxxxb$r77:*",
"%rrr7%kxxxxxxxxxxxxxxxxxxb%rrr7%",
"G$%%*slxxxxxxxxxxxxxxxxxxbd$%%*e",
"$r77:*lxxxxxxxxxxxxxxxxxxA$r77:*",
"%rrr7%lxxxxxxxxxxxxxxxxxvA%rrr7%",
"*$%%*slxxxxxxxxxxxxxxxxxvkd$%%**",
"$r77:ZgHxxxxxxxxxxxxxxxxxl$r77:*",
"%rrr7%jHxxxxxxxxxxxxxxxxxh%rrr7%",
"*$%%*shHxxxxxxxxxxxxxxxxxjd$%%*e",
"$r77:Zhmnxxxxxxxxxxxxxxxbk$r77:*",
"$rrr7%lhHHbxxxxxxxxxxnHHHA$rrr7%",
"%%%%%%sJVHmHbbbbbbbbHHHbHA%%%%%%"
};
