/* XPM */
static char *e4d725e37a2240a6829e75146fa31ba6YA9LuLS0sxAxgepQ[] = {
/* columns rows colors chars-per-pixel */
"32 32 13 1 ",
"  c #808080",
". c black",
"X c #06080B",
"o c #171C22",
"O c #141B24",
"+ c #202A34",
"@ c #252F3A",
"# c #2B3643",
"$ c #3D4B5C",
"% c #254D7C",
"& c #445972",
"* c #5C88BD",
"= c #4883C9",
/* pixels */
"                                ",
"                                ",
" oooooooooooooooooooooooooooooo ",
"o............o==%%o............o",
"o.............oooo.............o",
"o..............................o",
"o..............................o",
"o..............................o",
"o..............................o",
"o..............................o",
"o..............................o",
"o..............................o",
"o..............................o",
"o..............................o",
"o.oooooooooooooooooooooooooooo.o",
"oo............................oo",
" oooooooooooooooooooooooooooooo ",
" X@@X&&X@@@@++o=%X@@@@++X*&X@@X ",
" o#@X&&X######+XX+####@+X*&X#@o ",
" o$@o*&o#$$####@+######+O*&o$#o ",
" o$#o*&o$##############+o*&o$#o ",
" o##o*&o###############+o&&o##o ",
" o#@o*&o$##############@o&&o$#o ",
" o#@o&&o$##############@X*&o$@o ",
" o#@o&&o$#####$########@X*&o$@X ",
" X#+o*&o$####$####$####+X*&o#@X ",
" X#+o*&o$###$####$#####+X&&X#@X ",
" X@+X*&X###############+X&&X#+X ",
" X++X*&X###############+X&&X#+X ",
" X++X&&X############++++X*&X@+X ",
" X++X&&X#####+++++++++++X&&X++X ",
" XXXXXXXXXXXXXXXXXXXXXXXXXXXXXX "
};
