/* XPM */
static char *_64ef6bac474417fc8e6c891f45276e9mHVoHZZFwRlTDw7Z[] = {
/* columns rows colors chars-per-pixel */
"32 32 97 2 ",
"   c black",
".  c #020D0D",
"X  c #031111",
"o  c #091616",
"O  c #051718",
"+  c #051C1C",
"@  c #091D1D",
"#  c #191319",
"$  c #1E1E1E",
"%  c #061F20",
"&  c #062223",
"*  c #0A2425",
"=  c #072728",
"-  c #092728",
";  c #07292A",
":  c #092C2D",
">  c #082F30",
",  c #0A3334",
"<  c #0A3738",
"1  c #0B3D3E",
"2  c #0B3D3F",
"3  c #0B3C3D",
"4  c #0C3C3D",
"5  c #0D3C3D",
"6  c #0C3D3E",
"7  c #0D3D3E",
"8  c #0C3E3F",
"9  c #0D3E3F",
"0  c #0B393A",
"q  c #123233",
"w  c #133435",
"e  c #133536",
"r  c #143637",
"t  c #14393A",
"y  c #173C3D",
"u  c #222D28",
"i  c #2D2D2D",
"p  c #332733",
"a  c gray19",
"s  c gray21",
"d  c gray24",
"f  c #3F3F3F",
"g  c #0C3F40",
"h  c #193F40",
"j  c #1A3F40",
"k  c #3F3B49",
"l  c #0C4040",
"z  c #0C4041",
"x  c #0D4041",
"c  c #0C4142",
"v  c #0D4142",
"b  c #0C4143",
"n  c #0C4243",
"m  c #0D4243",
"M  c #0C4344",
"N  c #0D4344",
"B  c #1A4142",
"V  c #1F4748",
"C  c #234F50",
"Z  c #285556",
"A  c #2D5C5D",
"S  c #2E5E5F",
"D  c gray25",
"F  c #444444",
"G  c gray32",
"H  c #555555",
"J  c #585858",
"K  c gray35",
"L  c #5A5A5A",
"P  c #5B5B5B",
"I  c gray36",
"U  c #5D5D5D",
"Y  c gray37",
"T  c #5F5F5F",
"R  c #606060",
"E  c gray38",
"W  c #626262",
"Q  c #656565",
"!  c gray40",
"~  c #676767",
"^  c #686868",
"/  c DimGray",
"(  c #6A6A6A",
")  c gray42",
"_  c #6D6D6D",
"`  c #6F6F6F",
"'  c gray44",
"]  c #727272",
"[  c gray45",
"{  c #747474",
"}  c #777777",
"|  c gray47",
" . c #7B7B7B",
".. c #7C7C7C",
"X. c gray49",
"o. c gray50",
"O. c #808080",
/* pixels */
"u u Q W U P Q ^ Q ^ #   { # $ ] { # $ U # $ F W Q _ ] ^ ^ O.u u ",
"W P U U H #   $ ^ # k W $ k W #   k W $ k W $ F #   $ U _ ..O.O.",
"i P U P # p k W $ p k k # k k #   k k # k k W # p k W $ ] _ | ..",
"i H U     p p k   p p k   p k     p k   p k k   p p k   $ _ ] ..",
"i G # k k $ $ p k   p p   p p     p p   p p   p p #   k W $ _ | ",
"i i   p k W W $   X     X     X X     X     X   # p k k k   ^ ] ",
"$ #   p p k k   . . . . . . . X X X X X . . . .   p p p k   $ { ",
"# p k   $ p   . . . . X . . X + + O O O . . X . X   p #   k W $ ",
"  p p k W $ X . . o @ * , 0 5 5 5 0 0 : @ o . . . X # p k k k   ",
"  p p p k   . . o - , , c c 0 0 , 1 g < , & O X X .   p p p k   ",
"D #     $ X . X @ , 0 1 3 , ; ; ; > N c : 3 : ; O X X #     $ D ",
"# p k k W $ . o - 0 , : , ; & & & & & 1 1 , 1 : X X # p k k W $ ",
"  p p p k   . + , 0 > , : & & & & ; & & c , 3 , X X   p p p k   ",
"$ #     $ X . + , 0 : 0 = * & & & & ; & < , , , O X X #     $ s ",
"# p k k W $ X @ , 0 , , ; C * & & & & ; : , & 5 + X # p k k W $ ",
"  p p p k   X @ 5 0 > , ; t & & * : : & = 1 : 5 + X   p p p k   ",
"f #     $ X X @ c , , : - * & * & q Z & & , , c O X X #     $ D ",
"# p k k W $ . + c : < : & & & & & & S ; & ; , c + X # p k k W $ ",
"  p p p k   . % c ; > = & & & & & % B e & & ; N & X   p p p k   ",
"$ #     $ X . + c ; : & & & & & % % & & & & : N % X X #     $ f ",
"# p k k W $ . + N : , & & V j & & & & & & & : c % X # p k k W $ ",
"  p p p k   . + c : , ; & - * & & ; , & & & : 5 % X   p p p k   ",
"a #     $ X . + g , , > & & & & & j e & ; = , 5 % X X #     $ P ",
"# p k k W $ . O , , : 0 & & & & y V & & & : 0 5 % X # p k k W $ ",
"  p p p k   . O , , ; 0 ; & & & S r & & & > 0 5 % X   p p p k   ",
"$ #     $ . . X * , ; , , & & & & & & & ; : < 0 % X X #     $ $ ",
"# p k k W $ . . @ , , : < ; & & & & & : : , , , + . # p k k W $ ",
"  p p p k   . . @ - , : : : ; & & = ; : , , : - X .   p p p k   ",
"$ #     $ X . . O @ ; , , , , , > ; : , : - * @ X . X #     $ P ",
"# p k k W $ . . . & @ , g c N N N N g , , : & X . X # p k k W $ ",
"# p p p k   . . . . O O + + % % % % + O O . . . . X # p p p k   ",
"            X . . . . . X X X X X X X X . . . . . X             "
};
