/* XPM */
static char *_b7f422f250e4770b27510f0288e5dbfU4CqgLCTepg4OzAW[] = {
/* columns rows colors chars-per-pixel */
"32 32 5 1 ",
"  c #0A0F31",
". c #0C1340",
"X c #10184D",
"o c #111B5E",
"O c #1F2969",
/* pixels */
"OooooX.               X OoooooX ",
"Oooo..  OOooOOoXXXXXXX. Oooooo. ",
"ooXX. ooOoooooooooo...  .oXXX.. ",
"X.    oOooooooooX.              ",
"      oOoooooooX  oooooooooOOo  ",
" oOo  ooooooooX  oooOOOOOOooooo ",
"OoooX oooooooX  oOOoooooooooooo ",
"OoooX  oooooX. ooOooooooooooooo ",
"oooXX   oXXX.  oOoooooooooooooo.",
"ooXX oo       ooooooooooooooooX.",
"oXX  OoOOOOoo  oooooooooooooooX ",
"XX  Oooooooooo  oooooooooooooX. ",
" . ooooooooooX   oooooooooXX..  ",
"o  ooooooooooX .   oooXXX..   XX",
"oo  ooooooooXX ..          OOXXX",
"ooX    oXXXXX  .  ooOOOOo   oooX",
"oX.   X          oOoooooooo  ooX",
"X. ooooooOOOXXX  OOooooooooo OoX",
"  oOOoOOOOOooooo Oooooooooooo oX",
" ooOoooooooooooX oooooooooooX oX",
"oooooooooooooooX  ooooooooooX oX",
"oOoooooooooooooX  XXXoooooooX oX",
"oooooooooooooooX .   ooooXoXX oX",
"oooooooooooooooX . o  XXXXXX  oX",
" oooooooooooooXX  oOo       X oX",
"  oooooooooooXXX oOOoOOOOOooX  X",
"..  ooooooooooX  OOooooooooooX X",
".      ooXXXXX.  oooooooooooX. X",
"  OOOoo        . OooooooooooX. .",
" OOooooooXX.     oooooooooooX. .",
"oooooooooooXX..   oXXXXXXXXX.. .",
"oooooooooooo....        XX...  ."
};
