/* XPM */
static char *_d3ec7a412214ebad64e652b2c163099kiofdUpgFVYmL3XD[] = {
/* columns rows colors chars-per-pixel */
"32 32 6 1 ",
"  c #4B7661",
". c #2F4037",
"X c #3A5B4B",
"o c #394E44",
"O c #222D28",
"+ c #2D5C45",
/* pixels */
" .X      .oXX      XX.O.oX   .. ",
" ..XX   X.ooXXXX  XXo..oXXX ..o+",
"o. ...XX.O.ooXXXXXoo.O.ooXXX.oXX",
"..o   ..OOO..oooo...OO..oooo..oX",
"ooooo  ..OOOO....XX ..O..oo....o",
"...o....    ..O.XX   X.OO... ...",
"  .O.oX      ...oXXXXX.OO.oX .  ",
"Xo..ooXXXXoXo.  .oooX.....oXo.o ",
"ooo...oooooo.XX  .OO.    .o.....",
"ooo.X .......oX   .OoXXX ...  .O",
".o..oXX     .oXXX  .oooXX.oX   .",
"O..ooooXXXX..ooooo.....X..oXXX  ",
"O.....ooo.....ooo...XX ..ooXXXXX",
".oX  OOO..   .....ooXX ..oooXXXX",
" .XXX.O.X       ....oo..O.oooXoo",
"X.oXo..XX         .O...OO..oooo.",
"X.oo..ooXXXX   X  .OO....OO.....",
"....O.ooXXXXXXXXo....    ..OO.  ",
" ..OOO.ooooXXXooo..ooXXXXX...XX ",
"XX..OO.ooooooooo.O.ooooXXoX.ooXX",
"Xoo.......o....ooO.oooooooOO.ooo",
"oo..o   ....  .........O.......o",
"....oooo .XX .       .OOOO.  ...",
"X  .oooo..oo..XXX     ..O.XX  .O",
"XXX...... ...ooXXX     ..ooXXX..",
"..O.OO.XX   .oooXXXXXX  ..oooo.O",
"..O....oXXX ..oooXXXXoo....oo.OO",
"X   ..oooXXX ..ooooooo..OOO.....",
"XXXXoO.oooooo......o..O....O... ",
"XXXoo.........OOOO...OO.X ...oX ",
"oooo..Ooo  ..XX........oX  .ooXX",
".....oooo....X.X     ..ooo ..oXX"
};
