/* XPM */
static char *_56a5f312f984fc0b7d337278d91f997TXimtKOL8UNV1ngb[] = {
/* columns rows colors chars-per-pixel */
"32 32 17 1 ",
"  c #808080",
". c #2A2944",
"X c #5B5B84",
"o c #696999",
"O c #B0B0E8",
"+ c #000019",
"@ c #4E4E6D",
"# c #303051",
"$ c #21213A",
"% c #424260",
"& c #0E0E19",
"* c #4D4C68",
"= c #7B7BB2",
"- c #5F5F89",
"; c #2A2A49",
": c #031219",
"> c gray25",
/* pixels */
"                                ",
"                                ",
"                                ",
"                                ",
"                                ",
"                                ",
"                                ",
"                                ",
"              .....             ",
"            ..XoOOo++           ",
"           .OOoo@##@@+          ",
"          +OO$#XX@@#@@+         ",
"         +oOX@XXX@@@#@@+        ",
"        +%oX#@XX@@@@&$@+        ",
"        +%#$$#@@@@#&&$##*       ",
"       +O#$$$##$$&&&&$#O*       ",
"       +OOo$$$$&&&&&$o=O.       ",
"       +o%oo--@@;;@@oo%o.       ",
"       .o%%%%$$&&&$$$%%o.       ",
"       .o%%$$&&&&&&$$%%o.       ",
"       *o%o$$&&$$&&$$$%o*       ",
"       *O#oo$$$$$&&$$%#O*       ",
"       .OO##oo%$&&&$##=O.       ",
"       +oOO###&&&&$#oo=o+       ",
"      :+oo%XooX;;XooX%oo+:      ",
"      :>+o%%%$$$$$%%%%o+>:      ",
"      >>+oo%$$&&&$$$%oo+>>      ",
"      >>>+o%$$$&&&&$%o+>>>      ",
"      :>>>%%$$$&&&&$%%>>>:      ",
"       :>>>>%&&&&&$%>>>>:       ",
"        :>>>>>>>>>>>>>>:        ",
"           ::>>>>>>::           "
};
