/* XPM */
static char *_e11934e59e14ee0b0c755b826b7847fbDvxtL36XDljf75Z[] = {
/* columns rows colors chars-per-pixel */
"32 32 18 1 ",
"  c #808080",
". c #2A2944",
"X c #000019",
"o c #696999",
"O c #B0B0E8",
"+ c #5B5B84",
"@ c #4E4E6D",
"# c #303051",
"$ c #21213A",
"% c #0E0E19",
"& c #424260",
"* c #4D4C68",
"= c #7B7BB2",
"- c #2A2A49",
"; c #5F5F89",
": c gray39",
"> c gray25",
", c #000305",
/* pixels */
"                                ",
"                                ",
"                                ",
"                                ",
"                                ",
"                                ",
"                                ",
"                                ",
"             .....              ",
"           XXoOOo+..            ",
"          X@@##@ooOO.           ",
"         X@@#@@++#$OOX          ",
"        X@@#@@@+++@+OoX         ",
"        X@$%@@@@++@#+o&X        ",
"       *##$%%#@@@@#$$#&X        ",
"       *O#$%%%%$$##$$$#OX       ",
"       .O=o$%%%%%$$$$oOOX       ",
"       .o&oo@@--@@;;oo&oX       ",
"       .o&&$$$%%%$$&&&&o.       ",
"       .o&&$$%%%%%%$$&&o.       ",
"       *o&$$$%%$$%%$$o&o*       ",
"       *O#&$$%%$$$$$oo#O*       ",
"       .O=##$%%%$&oo##OO.       ",
"       Xo=oo#$%%%%###OOoX       ",
"      :Xoo&+oo+--+oo+&ooX:      ",
"      :>Xo&&&&$$$$$&&&oX>:      ",
"      >>Xoo&$$$%%%$$&ooX>>      ",
"      >>>Xo&$%%%%$$$&oX>>>      ",
"      :>>,&&$%%%%$$$&&>>>:      ",
"       :>>,,&$%%%%%&>>>>:       ",
"        :>>>>>>>>>>>>>>:        ",
"           ::>>>>>>::           "
};
