/* XPM */
static char *_b38ee710f0c4c2c951afc580b8f2ce9QcpXQ0nYtXv4Yg1o[] = {
/* columns rows colors chars-per-pixel */
"32 32 8 1 ",
"  c #172349",
". c #222D4D",
"X c #2F3958",
"o c #2D3B67",
"O c #303C63",
"+ c #3C4C7C",
"@ c #53618B",
"# c #7285BB",
/* pixels */
"###@+++.....oo###o@@@#######@@oo",
"@@@#@@++...oo#@@@@@@@@@@@@@@@@@@",
"@@@@@@@@+.oo@o@@@@@@@@@@@@@@@@@@",
"@@@@@@@@+.o#@@@@@@@@@@@@@@@@@@@@",
"@@@@@@@@+.o@@@@@@@@@@@@@@@@@@@@@",
"@@@@@@@@+O+@#@@@@@@@@@@@@@@@@@@@",
"@@@@@@@@@O@#@@@@@@@@@@@@@@@@@@@@",
"@@@@@@@@@Xo#@@@@@@@@@@@@@@@@@@@@",
"@@@@@@@@@.o@@@@@@@@@@@@@@@@@@@@@",
"@@@@@@@@@oo@@@@@@@@@@@@@@@@@@@@@",
"@@@@@@@@oo@#@@@@@@@@@@@@@@@@@@@@",
"@@@@@@@@o.@#@@@@@@@@@@@@@@@@@@@@",
"@@@@@@@+o.@#@@@@@@@@@@@@@@@@@@@@",
"@o@@@@@+o.@@@@@@@@@@@@@@@@@@@@@@",
"@@@o@oo+o..@@@@@@@@@@@@@@@@@@@++",
"++o+ooooo .@@@@@@@@@@@@@@@++++++",
"OOO......  O.....O    ...XOOOO  ",
"@@oooo@o@oooooooooo  o##o######@",
"####@@###@@oo#@o@oo oo+++@@@@@@@",
"@@@@@@@@@@@@@o@@@oo.o+@@@@@@@@@@",
"@@@@@@@@@@@@@@@@o@o.+#@@@@@@@@@@",
"@@#@@@@@@@@@@@@@@@@.+#@@@@@@@@@@",
"@#@@@@@@@@@@@@@@@@+O+@@@@@@@@@@@",
"@@@@@@@@@@@@@@@@@@+X@o@@@@@@@@@@",
"@@@@@@@@@@@@@@@@@@o.o@#@@@@@@@@@",
"@@@@@@@@@@@@@@@@@@o.o@@@@@@@@@@@",
"@@@@@@@@@@@@@@@@@o+.o@@@@@@@@@@@",
"@@@@@@@@@@@@@@@@@@o.oo@@@@@@@@@@",
"@@@@@@@@@@@@@@@@@++ oo@@@@@@@@@@",
"@@@@@@@@@@@@@@@+++o ooo@@@@@@o@@",
"@ooo@@+++ooo+oooooo  oooo++oo+@o",
"  OOXXXXXXXXX           XXXXXXXO"
};
