/* XPM */
static char *_edc3c8784dc4873a5d88fe51f12c38f5z16ZCKMgHHp8KFc[] = {
/* columns rows colors chars-per-pixel */
"32 32 2 1 ",
"  c #0F1C23",
". c #2E556B",
/* pixels */
"            .                .  ",
"            .                .  ",
"            .                .  ",
"            .                .  ",
"            .                .  ",
"            .                .  ",
"            .                .  ",
"................................",
"  .                .            ",
"  .                .            ",
"  .                .            ",
"  .                .            ",
"  .                .            ",
"  .                .            ",
"  .                .            ",
"................................",
"       .               .        ",
"       .               .        ",
"       .               .        ",
"       .               .        ",
"       .               .        ",
"       .               .        ",
"       .               .        ",
"................................",
"             .               .  ",
"             .               .  ",
"             .               .  ",
"             .               .  ",
"             .               .  ",
"             .               .  ",
"             .               .  ",
"................................"
};
