/* XPM */
static char *e5729408fef545ad8feb8f29f253f2840AaeMPWf1koAl3q6[] = {
/* columns rows colors chars-per-pixel */
"32 32 23 1 ",
"  c #1E1E1E",
". c #222D28",
"X c #2D2D2D",
"o c #313131",
"O c #373737",
"+ c gray22",
"@ c #3F3F3F",
"# c gray25",
"$ c #444444",
"% c gray31",
"& c gray32",
"* c #555555",
"= c #5B5B5B",
"- c #5D5D5D",
"; c #626262",
": c #656565",
"> c #6A6A6A",
", c #6C6C6C",
"< c #717171",
"1 c gray46",
"2 c gray47",
"3 c gray49",
"4 c #808080",
/* pixels */
"..:;-=:>:><<1<<<1,,-;-$;:,<>>4..",
";=--*===>,,>>,>>>,,>;:$$:>;-,344",
"X=-=&->,>1321111112<,,-X;;=<<,23",
"X*-=&*>>>>>,<1222111<1,X$;-<1,<3",
"X&&&&&&**=:::>>,,,,>>:$X$;;;>:,2",
"XX*-;=&&&*=--=-;;;;;$$XXX->>,>><",
" XXO       ## ##$%$$$$X@$O    11",
"   @@==+Oooooo O       #++++++  ",
"@@#==@=OOO+++++@====@@ +++@@@@O@",
"@####@@@##########====@o@#@===@+",
"#####@@@@#######@#@@#@O @####==#",
"+++++OOO+  +@@@#@@@@@  +@#####@#",
"          o  ooOOOOoo O@@@@@@@#@",
"  ooooooooooooooooo      ooo   O",
"OO++@@O+@@@@@@=====oOOOOooooooO@",
"+####@++########====OoO++o OOO@#",
"@###@@O +@@@###@@@@+OOoo+O @@@#@",
"+@@@@+O    OOOOOoO++OOooo  +@@##",
"OoOOO            ooo            ",
" oo    ooooooooo    oooo   oO+@@",
"ooo++++++++====++o +@+Ooo+@=====",
"oOO@#@+OO++@@==@oo +++@@++@##===",
"oOOO++O+OooOO@@@OoooOO+++@+@##==",
"oo+o  O+@@@@@@@Ooo ooO++OOO+@@@#",
"o       ooooooO          oooO+@@",
" OO       oo    oOOO            ",
"  ooo o+++OoOOO===+++O oO  ooooo",
"  OOo+oOO@@OOO+======O +@#@@@==+",
" O++ooooooO+Oo+@O@###Oo@#######=",
"  O@@+OOoooooooO++@@#Oo+@#######",
"  ooooo+++OoooooooooO  o@@######",
"       ooo@@OOOooo      oOO+@@@#"
};
